# xmcd
#
# Track frame offsets: 
#        150
#        13742
#        25445
#        41117
#        54452
#        66466
#        82529
#        94367
#        107424
#        123239
#        147247
#
# Disc length: 4440 seconds
#
# Revision: 2
# Processed by: cddbd v1.5.1PL0 Copyright (c) Steve Scherf et al.
# Submitted via: ExactAudioCopy v0.95a5
#
DISCID=9011560b
DTITLE=Kenny Chesney - In My Wildest Dreams
DYEAR=1994
DGENRE=Country
TTITLE0=Whatever It Takes
TTITLE1=Somebody's Callin
TTITLE2=The Tin Man
TTITLE3=High And Dry
TTITLE4=I Finally Found Somebody
TTITLE5=When She Calls Me Baby
TTITLE6=In My Wildest Dreams
TTITLE7=I Want My Rib Back
TTITLE8=Angel Loved The Devil
TTITLE9=I'd Love To Change Your Name
TTITLE10=data
EXTD=
EXTT0=
EXTT1=
EXTT2=
EXTT3=
EXTT4=
EXTT5=
EXTT6=
EXTT7=
EXTT8=
EXTT9=
EXTT10=
PLAYORDER=
